<svg xmlns="http://www.w3.org/2000/svg" version="1.1" xmlns:xlink="http://www.w3.org/1999/xlink" xmlns:svgjs="http://svgjs.dev/svgjs" width="2000" height="1247" viewBox="0 0 2000 1247"><g transform="matrix(1,0,0,1,-1.2121212121212466,0.504858299595071)"><svg viewBox="0 0 396 247" data-background-color="#ffffff" preserveAspectRatio="xMidYMid meet" height="1247" width="2000" xmlns="http://www.w3.org/2000/svg" xmlns:xlink="http://www.w3.org/1999/xlink"><g id="tight-bounds" transform="matrix(1,0,0,1,0.2400000000000091,-0.09999999999999432)"><svg viewBox="0 0 395.52 247.2" height="247.2" width="395.52"><g><svg></svg></g><g><svg viewBox="0 0 395.52 247.2" height="247.2" width="395.52"><g transform="matrix(1,0,0,1,75.54432,62.92554893617021)"><svg viewBox="0 0 244.43135999999998 121.34890212765957" height="121.34890212765957" width="244.43135999999998"><g><svg viewBox="0 0 244.43136 121.34890212765958" height="121.34890212765957" width="244.43135999999998"><g><svg viewBox="0 0 244.43136 121.34890212765958" height="121.34890212765958" width="244.43136"><g id="textblocktransform"><svg viewBox="0 0 244.43136 121.34890212765958" height="121.34890212765958" width="244.43136" id="textblock"><g><svg viewBox="0 0 244.43136 121.34890212765958" height="121.34890212765958" width="244.43136"><g transform="matrix(1,0,0,1,0,0)"><svg width="244.43136" viewBox="1.7999999999999998 -28 56.400000000000006 28" height="121.34890212765958" data-palette-color="#000000"><path d="M14-8L18-8Q18.2-7.2 18.2-6L18.2-6Q18.2-4.85 18-4L18-4 16-4Q16.2-3.2 16.2-2L16.2-2Q16.2-0.85 16 0L16 0 6 0Q5.8-0.85 5.8-2L5.8-2Q5.8-3.2 6-4L6-4 4-4Q3.8-4.85 3.8-6L3.8-6Q3.8-7.2 4-8L4-8 2-8Q1.8-8.85 1.8-10L1.8-10Q1.8-11.2 2-12L2-12Q1.8-12.85 1.8-14L1.8-14Q1.8-15.2 2-16L2-16Q1.8-16.85 1.8-18L1.8-18Q1.8-19.2 2-20L2-20 4-20Q3.8-20.85 3.8-22L3.8-22Q3.8-23.2 4-24L4-24 6-24Q5.8-24.85 5.8-26L5.8-26Q5.8-27.2 6-28L6-28 16-28Q16.2-27.2 16.2-26L16.2-26Q16.2-24.85 16-24L16-24 18-24Q18.2-23.2 18.2-22L18.2-22Q18.2-20.85 18-20L18-20 14-20Q13.8-20.85 13.8-22L13.8-22Q13.8-23.2 14-24L14-24 8-24Q8.2-23.2 8.2-22L8.2-22Q8.2-20.85 8-20L8-20 6-20Q6.2-19.2 6.2-18L6.2-18Q6.2-16.85 6-16L6-16Q6.2-15.2 6.2-14L6.2-14Q6.2-12.85 6-12L6-12Q6.2-11.2 6.2-10L6.2-10Q6.2-8.85 6-8L6-8 8-8Q8.2-7.2 8.2-6L8.2-6Q8.2-4.85 8-4L8-4 14-4Q13.8-4.85 13.8-6L13.8-6Q13.8-7.2 14-8L14-8ZM36.5-4L38-4Q38.2-3.2 38.2-2L38.2-2Q38.2-0.85 38 0L38 0 34 0Q33.8-0.85 33.8-2L33.8-2Q33.8-3.2 34-4L34-4 32.5-4Q32.3-4.85 32.3-6L32.3-6Q32.3-7.2 32.5-8L32.5-8 31-8Q30.8-8.85 30.8-10L30.8-10Q30.8-11.2 31-12L31-12 26-12Q26.2-11.2 26.2-10L26.2-10Q26.2-8.85 26-8L26-8Q26.2-7.2 26.2-6L26.2-6Q26.2-4.85 26-4L26-4Q26.2-3.2 26.2-2L26.2-2Q26.2-0.85 26 0L26 0 22 0Q21.8-0.85 21.8-2L21.8-2Q21.8-3.2 22-4L22-4Q21.8-4.85 21.8-6L21.8-6Q21.8-7.2 22-8L22-8Q21.8-8.85 21.8-10L21.8-10Q21.8-11.2 22-12L22-12Q21.8-12.85 21.8-14L21.8-14Q21.8-15.2 22-16L22-16Q21.8-16.85 21.8-18L21.8-18Q21.8-19.2 22-20L22-20Q21.8-20.85 21.8-22L21.8-22Q21.8-23.2 22-24L22-24Q21.8-24.85 21.8-26L21.8-26Q21.8-27.2 22-28L22-28 36-28Q36.2-27.2 36.2-26L36.2-26Q36.2-24.85 36-24L36-24 38-24Q38.2-23.2 38.2-22L38.2-22Q38.2-20.85 38-20L38-20 37-20Q37.2-19.2 37.2-18L37.2-18Q37.2-16.85 37-16L37-16 34-16Q34.2-15.2 34.2-14L34.2-14Q34.2-12.85 34-12L34-12 35-12Q35.2-11.2 35.2-10L35.2-10Q35.2-8.85 35-8L35-8 36.5-8Q36.7-7.2 36.7-6L36.7-6Q36.7-4.85 36.5-4L36.5-4ZM33-16Q32.8-16.85 32.8-18L32.8-18Q32.8-19.2 33-20L33-20Q32.8-20.85 32.8-22L32.8-22Q32.8-23.2 33-24L33-24 26-24Q26.2-23.2 26.2-22L26.2-22Q26.2-20.85 26-20L26-20Q26.2-19.2 26.2-18L26.2-18Q26.2-16.85 26-16L26-16 33-16ZM58-24Q58.2-23.2 58.2-22L58.2-22Q58.2-20.85 58-20L58-20Q58.2-19.2 58.2-18L58.2-18Q58.2-16.85 58-16L58-16Q58.2-15.2 58.2-14L58.2-14Q58.2-12.85 58-12L58-12Q58.2-11.2 58.2-10L58.2-10Q58.2-8.85 58-8L58-8Q58.2-7.2 58.2-6L58.2-6Q58.2-4.85 58-4L58-4Q58.2-3.2 58.2-2L58.2-2Q58.2-0.85 58 0L58 0 54 0Q53.8-0.85 53.8-2L53.8-2Q53.8-3.2 54-4L54-4Q53.8-4.85 53.8-6L53.8-6Q53.8-7.2 54-8L54-8Q53.8-8.85 53.8-10L53.8-10Q53.8-11.2 54-12L54-12Q53.8-12.85 53.8-14L53.8-14Q53.8-15.2 54-16L54-16Q53.8-16.85 53.8-18L53.8-18Q53.8-19.2 54-20L54-20 52.5-20Q52.7-19.2 52.7-18L52.7-18Q52.7-16.85 52.5-16L52.5-16Q52.7-15.2 52.7-14L52.7-14Q52.7-12.85 52.5-12L52.5-12 51.5-12Q51.7-11.2 51.7-10L51.7-10Q51.7-8.85 51.5-8L51.5-8Q51.7-7.2 51.7-6L51.7-6Q51.7-4.85 51.5-4L51.5-4 48.5-4Q48.3-4.85 48.3-6L48.3-6Q48.3-7.2 48.5-8L48.5-8Q48.3-8.85 48.3-10L48.3-10Q48.3-11.2 48.5-12L48.5-12 47.5-12Q47.3-12.85 47.3-14L47.3-14Q47.3-15.2 47.5-16L47.5-16Q47.3-16.85 47.3-18L47.3-18Q47.3-19.2 47.5-20L47.5-20 46-20Q46.2-19.2 46.2-18L46.2-18Q46.2-16.85 46-16L46-16Q46.2-15.2 46.2-14L46.2-14Q46.2-12.85 46-12L46-12Q46.2-11.2 46.2-10L46.2-10Q46.2-8.85 46-8L46-8Q46.2-7.2 46.2-6L46.2-6Q46.2-4.85 46-4L46-4Q46.2-3.2 46.2-2L46.2-2Q46.2-0.85 46 0L46 0 42 0Q41.8-0.85 41.8-2L41.8-2Q41.8-3.2 42-4L42-4Q41.8-4.85 41.8-6L41.8-6Q41.8-7.2 42-8L42-8Q41.8-8.85 41.8-10L41.8-10Q41.8-11.2 42-12L42-12Q41.8-12.85 41.8-14L41.8-14Q41.8-15.2 42-16L42-16Q41.8-16.85 41.8-18L41.8-18Q41.8-19.2 42-20L42-20Q41.8-20.85 41.8-22L41.8-22Q41.8-23.2 42-24L42-24Q41.8-24.85 41.8-26L41.8-26Q41.8-27.2 42-28L42-28 47-28Q47.2-27.2 47.2-26L47.2-26Q47.2-24.85 47-24L47-24 48.5-24Q48.7-23.2 48.7-22L48.7-22Q48.7-20.85 48.5-20L48.5-20 49.25-20Q49.45-19.2 49.45-18L49.45-18Q49.45-16.85 49.25-16L49.25-16 50.75-16Q50.55-16.85 50.55-18L50.55-18Q50.55-19.2 50.75-20L50.75-20 51.5-20Q51.3-20.85 51.3-22L51.3-22Q51.3-23.2 51.5-24L51.5-24 53-24Q52.8-24.85 52.8-26L52.8-26Q52.8-27.2 53-28L53-28 58-28Q58.2-27.2 58.2-26L58.2-26Q58.2-24.85 58-24L58-24Z" opacity="1" transform="matrix(1,0,0,1,0,0)" fill="#000000" class="wordmark-text-0" data-fill-palette-color="primary" id="text-0"></path></svg></g></svg></g></svg></g></svg></g></svg></g></svg></g><path d="M240.04 56.926L240.04 9.268 11.376 9.268 11.376 237.932 240.04 237.932 240.04 190.274 229.097 190.274 229.097 226.989 22.319 226.989 22.319 20.211 229.097 20.211 229.097 56.926Z" fill="#000000" stroke="transparent" data-fill-palette-color="tertiary"></path></svg></g><defs></defs></svg><rect width="395.52" height="247.2" fill="none" stroke="none" visibility="hidden"></rect></g></svg></g></svg>